<svg xmlns="http://www.w3.org/2000/svg" width="1200" height="600" viewBox="0 0 1200 600">
<rect width="1200" height="600" fill="white"/>
<text x="50" y="40" font-size="25" font-family="sans-serif">Day7：四小时真实研究状态（录音 × Replay 校正版）</text>
<text x="50" y="68" font-size="14" font-family="sans-serif">不是“A后一直B”。C/D在中段已实际扫描并产生得分资产。</text>
<line x1="80" y1="500" x2="1120" y2="500" stroke="#222" stroke-width="2"/>
<g font-family="sans-serif" font-size="12"><text x="75" y="525">0:00</text><text x="330" y="525">1:00</text><text x="590" y="525">2:00</text><text x="850" y="525">3:00</text><text x="1090" y="525">4:00</text></g>
<g stroke="#ddd"><line x1="340" y1="90" x2="340" y2="500"/><line x1="600" y1="90" x2="600" y2="500"/><line x1="860" y1="90" x2="860" y2="500"/></g>
<rect x="80" y="120" width="160" height="55" fill="#ddd"/><text x="95" y="150" font-size="15" font-family="sans-serif">A 建模+实现</text><text x="95" y="168" font-size="12" font-family="sans-serif">~0:37 → 100</text>
<rect x="240" y="200" width="240" height="55" fill="#ccc"/><text x="255" y="230" font-size="15" font-family="sans-serif">B 手算→brute→稳定</text>
<rect x="480" y="200" width="95" height="55" fill="#bbb"/><text x="490" y="225" font-size="12" font-family="sans-serif">B calc瓶颈</text><text x="490" y="242" font-size="12" font-family="sans-serif">冻结 WA.cpp</text>
<rect x="575" y="290" width="28" height="55" fill="#ddd"/><text x="563" y="370" font-size="11" font-family="sans-serif">C10</text>
<rect x="603" y="370" width="65" height="55" fill="#ccc"/><text x="610" y="400" font-size="12" font-family="sans-serif">D19</text>
<rect x="668" y="200" width="185" height="55" fill="#aaa"/><text x="680" y="230" font-size="13" font-family="sans-serif">B离线 / D更高分研究</text>
<rect x="853" y="370" width="200" height="55" fill="#999"/><text x="865" y="400" font-size="13" font-family="sans-serif">D 5000候选→Debug→判死</text>
<rect x="1053" y="200" width="45" height="55" fill="#777"/><text x="1057" y="230" font-size="11" font-family="sans-serif">交B</text>
<circle cx="575" cy="205" r="7" fill="#111"/><text x="500" y="190" font-size="12" font-family="sans-serif">01:53 B稳定版冻结</text>
<circle cx="620" cy="375" r="7" fill="#111"/><text x="610" y="455" font-size="12" font-family="sans-serif">~02:18 已想到D19</text>
<circle cx="1040" cy="375" r="7" fill="#111"/><text x="930" y="455" font-size="12" font-family="sans-serif">03:51 D模型判死</text>
<text x="80" y="565" font-size="14" font-family="sans-serif">核心教训：B会冻结；真正没冻结的是已确认的 C10 / D19 得分资产。</text>
</svg>